# xmcd CD database file generated by Grip 2.95
# 
# Track frame offsets:
#       150
#       25755
#       53960
#       66180
#       115710
#       134370
#       163502
# 
# Disc length: 2466 seconds
# 
# Revision: 3
# Processed by: cddbd v1.4b41PL1 Copyright (c) Steve Scherf et al.
# Submitted via: Grip 2.95
# 
DISCID=5809a007
DTITLE=Bosco and Jorge - Bosco and Jorge Bosco and Jorge Bosco and Jorge
DYEAR=1900
DGENRE=
TTITLE0=sorta play that sorta stuff
TTITLE1=two steps behind in the 1st place
TTITLE2=mikeys pole
TTITLE3=lil smokie
TTITLE4=maria carballo
TTITLE5=niagra
TTITLE6=17 year cicada
EXTD=
EXTT0=
EXTT1=
EXTT2=
EXTT3=
EXTT4=
EXTT5=
EXTT6=
PLAYORDER=
